<?xml version="1.0" encoding="UTF-8"?>
<svg version="1.1" xmlns="http://www.w3.org/2000/svg" width="500" height="500">
<path d="M0 0 C6.32109621 -0.31087358 11.3111608 0.46708635 17.36328125 2.2734375 C19.69394396 2.91566456 21.85212643 3.31204512 24.25 3.5625 C28 4 28 4 31.1953125 4.9140625 C35.31281269 6.08928329 39.43090082 6.96600077 43.625 7.8125 C51.66306705 9.46578153 59.64598563 11.3016647 67.61767578 13.24926758 C76.00380093 15.28594515 84.44579552 16.9115795 92.9375 18.4375 C98.44997602 19.44832474 103.81719428 20.71214599 109.203125 22.2578125 C113.63744686 23.43451802 118.13829175 24.24428616 122.640625 25.1171875 C127.80466784 26.14080049 132.93176505 27.32245427 138.0625 28.5 C144.03442536 29.87034134 150.00498993 31.23334721 156 32.5 C161.99502252 33.76665542 167.96545067 35.13016685 173.9375 36.5 C182.60084614 38.4813001 191.27505562 40.30815799 200 42 C220.00409836 45.89754098 220.00409836 45.89754098 228.9609375 48.21875 C239.03522172 50.80854029 249.17162739 53.08623378 259.37890625 55.0859375 C265.82287974 56.35227933 272.25481979 57.67771786 278.6875 59 C279.91114258 59.24927246 281.13478516 59.49854492 282.39550781 59.75537109 C287.9989002 60.90918873 293.57007889 62.11442233 299.11328125 63.53125 C305.20073913 65.08588219 311.33189309 66.31235209 317.5 67.5 C324.81695059 68.90885384 332.04379293 70.47970793 339.26318359 72.32617188 C342.84637561 73.20838507 346.42660659 73.86832462 350.0625 74.5 C357.53199105 75.83950542 364.79956813 77.59985604 372 80 C371.45136137 86.7857936 370.45732062 93.35009036 369 100 C368.34 100 367.68 100 367 100 C367.061875 100.94875 367.12375 101.8975 367.1875 102.875 C367.1875 105.97924564 366.64508072 108.48994685 365.6875 111.4375 C364.03389709 116.53804982 363.0648338 121.69254371 362.13012695 126.95898438 C361.37195189 131.17095759 360.46477562 135.2952946 359.375 139.4375 C358.4729217 142.87841724 357.80544896 146.14429212 357.5 149.6875 C357.15661323 153.65790957 356.03554026 157.01696544 354.6875 160.75 C353.98690746 163.0428483 353.69875569 165.1149317 353.5 167.5 C353.15532738 171.54462768 352.11640481 175.00346062 350.76171875 178.81640625 C348.76318162 184.54554602 347.75362024 190.17631432 347.24609375 196.21484375 C347 198 347 198 346 199 C345.46181098 201.83134222 344.9639729 204.65644334 344.5 207.5 C343.13513514 215.86486486 343.13513514 215.86486486 342 217 C341.83974099 218.32955625 341.72238997 219.66436608 341.625 221 C341.29270887 224.38722571 340.65977935 227.3021618 339.5 230.5 C337.87048933 235.00698806 337.37856742 239.23005045 337 244 C336.34 244 335.68 244 335 244 C335.0928125 245.7015625 335.0928125 245.7015625 335.1875 247.4375 C335.1875 250.58327724 334.78973426 252.99820865 333.6875 255.9375 C331.70637827 261.26117784 330.8977244 266.73717146 330.00268555 272.32397461 C329.09394578 277.90605422 329.09394578 277.90605422 328 279 C327.79300437 280.49496842 327.63320741 281.9966592 327.5 283.5 C327.11111111 287.88888889 327.11111111 287.88888889 326 289 C325.83974099 290.32955625 325.72238997 291.66436608 325.625 293 C325.29270887 296.38722571 324.65977935 299.3021618 323.5 302.5 C322.39753949 305.55296758 321.76953351 308.26559792 321.5 311.5 C321.23542001 314.58500266 320.69412497 317.15822752 319.625 320.0625 C317.62459636 325.61483986 316.72687415 331.37169845 315.69140625 337.16015625 C313.46277916 349.53722084 313.46277916 349.53722084 312 351 C311.79300437 352.49496842 311.63320741 353.9966592 311.5 355.5 C311.11111111 359.88888889 311.11111111 359.88888889 310 361 C309.79231771 362.47396739 309.63283983 363.9549126 309.5 365.4375 C309.10958904 369.78082192 309.10958904 369.78082192 308 372 C306.72873466 375.98329807 305.81928408 379.87730425 305.125 384 C304.35262768 388.46394712 303.28064422 392.76191308 302.0625 397.125 C299.81085509 405.33638905 298.40532542 413.60987264 297 422 C296.63557254 424.00195345 296.26255258 426.00239443 295.875 428 C295.72804688 428.763125 295.58109375 429.52625 295.4296875 430.3125 C295 432 295 432 294 433 C293.81400024 434.34923638 293.67657093 435.70528869 293.5625 437.0625 C293.09469659 441.56060972 292.38650847 445.68641808 291 450 C286.97582286 451.34139238 283.63551416 450.47094709 279.5625 449.75 C278.81806641 449.62753906 278.07363281 449.50507813 277.30664062 449.37890625 C271.83085631 448.44073116 266.47658205 447.16026088 261.09545898 445.78515625 C255.99736389 444.49203583 250.87449581 443.30839605 245.75 442.125 C244.63608887 441.8674292 243.52217773 441.6098584 242.37451172 441.34448242 C233.69679781 439.35413052 224.99605274 437.49574294 216.26855469 435.73681641 C210.4686931 434.55817457 204.73276943 433.21348187 198.99658203 431.7565918 C182.05296943 427.478585 164.95524367 423.88860787 147.82568359 420.44824219 C140.71144343 419.01350742 133.64647136 417.4722374 126.61474609 415.66772461 C123.00863708 414.74683683 119.38461299 413.92461486 115.75 413.125 C114.64277588 412.87955444 114.64277588 412.87955444 113.51318359 412.62915039 C106.89586059 411.17333933 100.26082871 409.8059763 93.625 408.4375 C86.79958115 407.02905512 80.01793011 405.56498029 73.2734375 403.8046875 C68.55777153 402.64546651 63.81029134 401.64338032 59.0625 400.625 C51.91291609 399.09017704 44.79010321 397.48864266 37.6875 395.75 C25.00251748 392.66291288 12.21900462 390.01027292 -0.55004883 387.29785156 C-9.02219466 385.49792592 -17.49183308 383.68856462 -25.94921875 381.8203125 C-26.68037399 381.65973862 -27.41152924 381.49916473 -28.1648407 381.33372498 C-32.02047644 380.47707731 -35.83042924 379.53319216 -39.625 378.4375 C-44.71601378 376.98851915 -49.87598406 376.0568388 -55.08056641 375.12915039 C-60.0125174 374.23334224 -64.77111932 373.01904873 -69.58203125 371.62890625 C-73.04217922 370.72893238 -76.44407898 370.33546425 -80 370 C-81.29012138 365.61358732 -80.54708376 363.23412399 -79 359 C-78.68883048 357.69198653 -78.39912132 356.37877626 -78.125 355.0625 C-76.9505568 349.52852365 -75.41582696 344.09697707 -73.90234375 338.6484375 C-73.02411215 335.0974924 -72.46790595 331.62521724 -72 328 C-70.8428233 320.90966274 -69.31053849 313.93858761 -67.65625 306.94921875 C-66.92722647 303.85141095 -66.92722647 303.85141095 -66.4375 300.0625 C-66 297 -66 297 -65.06640625 294.2421875 C-63.95676626 290.86855676 -63.20734296 287.54155096 -62.5 284.0625 C-61.74760988 280.44422188 -60.9772538 276.92239531 -59.9375 273.375 C-58.80745335 269.30683204 -58.18398807 265.2353485 -57.5625 261.0625 C-57 258 -57 258 -56.02734375 254.6015625 C-54.96423389 250.87461462 -54.23912782 247.19011054 -53.5625 243.375 C-51.50614122 232.02389953 -48.80919433 220.86405361 -45.71875 209.75390625 C-44.75326468 206.05462825 -44.05398011 202.41641798 -43.5625 198.625 C-43 195 -43 195 -42.0625 191.8125 C-40.88225194 187.57749227 -40.19016247 183.37564692 -39.49609375 179.0390625 C-38.06512024 170.2729413 -36.02341961 161.64460951 -34 153 C-33.478236 150.75021563 -32.95738719 148.5002188 -32.4375 146.25 C-32.19 145.18136719 -31.9425 144.11273438 -31.6875 143.01171875 C-31.08352002 140.36587461 -30.50643137 137.71603146 -29.9375 135.0625 C-29.39276945 132.57035772 -28.76279033 130.30232449 -27.9375 127.875 C-26.86528632 124.58687805 -26.48223932 121.42531753 -26 118 C-25.53767428 115.58005508 -25.05801077 113.16336851 -24.5625 110.75 C-23.67097468 106.38393547 -22.81473678 102.0175255 -22.0625 97.625 C-21.1993818 92.79443929 -20.12082249 88.02594632 -19 83.25 C-18.8337915 82.54053223 -18.66758301 81.83106445 -18.49633789 81.10009766 C-17.70921354 77.79440769 -16.86543666 74.53001052 -15.9296875 71.26171875 C-15.1948737 68.68369553 -14.59834533 66.19487963 -14.125 63.5625 C-13.25688336 59.03589182 -12.14991596 54.58644268 -11 50.125 C-9.52385549 44.36007548 -8.3388679 38.62793429 -7.4296875 32.7421875 C-6.53623198 27.04031681 -5.38508003 21.39908663 -3.9375 15.8125 C-2.93982216 12.04614646 -2.93982216 12.04614646 -2.5 8.3125 C-2.03595447 5.23819838 -1.28040375 2.81688825 0 0 Z " fill="#FD5555" transform="translate(104,25)"/>
<path d="M0 0 C6.90456485 0.53094752 13.47844518 1.62296545 20.2109375 3.22265625 C21.64045242 3.55402588 21.64045242 3.55402588 23.09884644 3.89208984 C25.13541366 4.3648272 27.17134062 4.84033008 29.20666504 5.31838989 C33.52460295 6.33249392 37.84565425 7.33300658 42.16662598 8.33409119 C44.35224236 8.84048993 46.53770808 9.34753944 48.72302246 9.85523987 C57.88620657 11.98205974 67.06364506 14.03850664 76.25 16.0625 C94.22489643 20.03082007 112.17213451 24.11870075 130.12002563 28.20713806 C138.82770567 30.19000572 147.53833038 32.15974382 156.25 34.125 C156.91673737 34.27542755 157.58347473 34.4258551 158.27041626 34.58084106 C161.84684316 35.38767579 165.42336722 36.19407843 169 37 C169.11181667 40.95975293 168.83604348 44.30201446 167.7890625 48.1171875 C166.37527566 53.4994988 165.07457558 58.89569375 163.8359375 64.3203125 C163.64117828 65.17221664 163.44641907 66.02412079 163.24575806 66.90184021 C162.62054061 69.6425248 161.99757032 72.38371296 161.375 75.125 C161.04885712 76.5576268 161.04885712 76.5576268 160.71612549 78.01919556 C157.28792241 93.09140316 154.01556649 108.19236895 150.81967163 123.31530762 C148.15278088 135.91151612 145.2707785 148.43639553 142.17782593 160.93450928 C139.79831977 170.5511286 137.66863166 180.17990631 135.80859375 189.91015625 C134.76403106 195.33048702 133.41036693 200.66492443 132 206 C122.95469975 205.36789733 114.3133154 203.44730896 105.5 201.4375 C103.89981521 201.07713799 102.2995533 200.71711827 100.69921875 200.35742188 C89.41680251 197.81305819 78.15760679 195.17186143 66.90411377 192.50292969 C47.10660852 187.8091671 27.2365326 183.44144544 7.35546875 179.1171875 C4.59112074 178.51574023 1.82680086 177.91416392 -0.9375 177.3125 C-1.59768127 177.16891052 -2.25786255 177.02532104 -2.93804932 176.87738037 C-14.32817334 174.3973667 -25.67640813 171.767139 -37 169 C-36.36924113 159.78543564 -34.36334102 150.97613461 -32.3125 142 C-31.94828172 140.38633169 -31.58451734 138.77256087 -31.22119141 137.15869141 C-30.15603955 132.43715661 -29.07957816 127.71825419 -28 123 C-27.71398926 121.74799805 -27.42797852 120.49599609 -27.13330078 119.20605469 C-25.1959093 110.74125535 -23.23362224 102.28230867 -21.25878906 93.82617188 C-18.15367587 80.52546597 -15.16379088 67.20872222 -12.3269043 53.84814453 C-10.38260103 44.71809704 -8.366448 35.60586818 -6.3125 26.5 C-6.02705322 25.23067627 -5.74160645 23.96135254 -5.44750977 22.65356445 C-3.73193017 15.07579365 -1.92117554 7.52829709 0 0 Z " fill="#FEFBFB" transform="translate(184,147)"/>
<path d="M0 0 C18.4078125 -0.1546875 18.4078125 -0.1546875 37.1875 -0.3125 C41.03688232 -0.35802002 44.88626465 -0.40354004 48.85229492 -0.45043945 C53.61779785 -0.47302246 53.61779785 -0.47302246 55.86128235 -0.47721863 C57.40078497 -0.48480754 58.94026124 -0.50220438 60.47956848 -0.52787781 C75.53911963 -0.76610269 87.65212695 2.10286297 98.86328125 12.7734375 C106.30316983 20.57974457 109.42354214 28.50196891 109.5625 39.1875 C109.57724365 39.93563965 109.5919873 40.6837793 109.60717773 41.45458984 C109.51432169 46.49550526 108.35923494 49.95753875 105.79418945 54.29736328 C104.73467597 56.1117746 104.73467597 56.1117746 105.625 58.6875 C106.07875 59.450625 106.5325 60.21375 107 61 C110.84667703 68.84891821 110.11580832 79.84609525 107.375 88 C102.40586882 99.62951052 94.49535121 106.33763006 82.96484375 111.01953125 C76.58993284 113.12770337 70.42946125 113.13460878 63.7890625 113.09765625 C62.93014404 113.09664917 62.07122559 113.09564209 61.1862793 113.09460449 C57.99917248 113.08940002 54.8120848 113.07543887 51.625 113.0625 C44.48875 113.041875 37.3525 113.02125 30 113 C30 85.61 30 58.22 30 30 C36.97125 29.9175 43.9425 29.835 51.125 29.75 C54.41041748 29.69537598 54.41041748 29.69537598 57.76220703 29.63964844 C59.51073223 29.62795896 61.25926837 29.61776774 63.0078125 29.609375 C63.90556396 29.58891113 64.80331543 29.56844727 65.72827148 29.54736328 C71.46501331 29.54418415 74.61031253 30.21781785 79 34 C80.53214888 37.06429776 80.22938548 39.6165642 80 43 C78.5 45.9375 78.5 45.9375 77 48 C77.66 48.33 78.32 48.66 79 49 C79 49.66 79 50.32 79 51 C77.68 51.33 76.36 51.66 75 52 C78.21922387 52.33545666 78.21922387 52.33545666 80.625 49.625 C84.36672221 45.48941229 84.22249681 42.88225457 84.15234375 37.48046875 C83.97330431 34.56533934 83.55640449 32.49024718 82 30 C80.15017528 28.74172877 80.15017528 28.74172877 78 28 C77.39830994 27.65981842 76.79661987 27.31963684 76.17669678 26.96914673 C73.64569367 25.84224958 71.81206118 25.72389785 69.04785156 25.68115234 C68.05350098 25.66109131 67.05915039 25.64103027 66.03466797 25.62036133 C64.4783667 25.60332153 64.4783667 25.60332153 62.890625 25.5859375 C61.45178955 25.55947144 61.45178955 25.55947144 59.98388672 25.5324707 C56.40609395 25.4694794 52.82802206 25.42324043 49.25 25.375 C41.2475 25.25125 33.245 25.1275 25 25 C25 54.04 25 83.08 25 113 C23.35 113 21.7 113 20 113 C20 82.31 20 51.62 20 20 C38.81 20 57.62 20 77 20 C77 19.01 77 18.02 77 17 C46.805 16.505 46.805 16.505 16 16 C16 48.01 16 80.02 16 113 C14.02 113 12.04 113 10 113 C10 79.01 10 45.02 10 10 C20.51875 9.9175 31.0375 9.835 41.875 9.75 C45.17741699 9.71358398 48.47983398 9.67716797 51.88232422 9.63964844 C54.52310538 9.62795727 57.16389379 9.61776646 59.8046875 9.609375 C60.47766876 9.59892151 61.15065002 9.58846802 61.84402466 9.57769775 C72.90382249 9.41472334 81.98561205 10.50166163 90.375 18.25 C97.16371313 24.85725381 99.33191938 29.44232492 99.5 39 C99.46071189 45.34212019 98.31732955 49.60933948 95 55 C95 59.19289029 95.31990406 59.84274445 97.5 63.125 C100.409985 68.22163088 101.05081235 72.22473531 100 78 C96.95461891 87.83223037 92.96467078 94.49814942 84.16015625 99.921875 C78.24407126 102.87456841 73.14171578 103.27453921 66.6640625 103.1953125 C65.34503433 103.19106766 65.34503433 103.19106766 63.99935913 103.18673706 C61.20776406 103.17559712 58.4164971 103.15050411 55.625 103.125 C53.72526507 103.1149622 51.82552508 103.10583775 49.92578125 103.09765625 C45.28372893 103.07567806 40.64191998 103.0411911 36 103 C36 104.65 36 106.3 36 108 C41.47759755 107.98040971 46.95362634 107.92818169 52.43066406 107.84741211 C54.28864973 107.82440449 56.14676264 107.80987742 58.00488281 107.80444336 C69.06991819 107.7657336 78.12804106 107.48406058 88 102 C89.11375 101.4225 90.2275 100.845 91.375 100.25 C95.15199962 97.01257176 97.5587887 93.30632553 100 89 C100.34417969 88.39414062 100.68835938 87.78828125 101.04296875 87.1640625 C104.08749184 80.61762318 103.74715744 73.03252317 103 66 C102.11175542 63.49541663 102.11175542 63.49541663 100.875 61.4375 C99 58 99 58 99.625 54.8125 C100.07875 53.884375 100.5325 52.95625 101 52 C104.3712643 45.04676738 104.06608694 35.7164226 102.3828125 28.26953125 C98.83673259 19.40433147 92.1382059 12.94103069 83.58984375 8.97265625 C77.9519832 6.85526971 72.90210115 5.74754607 66.87133789 5.68115234 C66.18655334 5.67099909 65.50176878 5.66084583 64.79623318 5.6503849 C62.60504544 5.6200325 60.41398562 5.60267533 58.22265625 5.5859375 C56.85964881 5.56897924 55.4966518 5.55116001 54.13366699 5.5324707 C49.1100642 5.46957166 44.08626466 5.42326914 39.0625 5.375 C22.2015625 5.189375 22.2015625 5.189375 5 5 C5 40.64 5 76.28 5 113 C3.35 113 1.7 113 0 113 C0 75.71 0 38.42 0 0 Z " fill="#FEF7F7" transform="translate(196,190)"/>
<path d="M0 0 C18.4078125 -0.1546875 18.4078125 -0.1546875 37.1875 -0.3125 C41.03688232 -0.35802002 44.88626465 -0.40354004 48.85229492 -0.45043945 C53.61779785 -0.47302246 53.61779785 -0.47302246 55.86128235 -0.47721863 C57.40078497 -0.48480754 58.94026124 -0.50220438 60.47956848 -0.52787781 C75.53911963 -0.76610269 87.65212695 2.10286297 98.86328125 12.7734375 C106.30316983 20.57974457 109.42354214 28.50196891 109.5625 39.1875 C109.57724365 39.93563965 109.5919873 40.6837793 109.60717773 41.45458984 C109.51432169 46.49550526 108.35923494 49.95753875 105.79418945 54.29736328 C104.73467597 56.1117746 104.73467597 56.1117746 105.625 58.6875 C106.07875 59.450625 106.5325 60.21375 107 61 C110.84667703 68.84891821 110.11580832 79.84609525 107.375 88 C102.40586882 99.62951052 94.49535121 106.33763006 82.96484375 111.01953125 C77.08211235 112.96494045 71.44629736 113.13827739 65.3203125 113.09765625 C64.50754852 113.0962413 63.69478455 113.09482635 62.85739136 113.09336853 C60.27988899 113.08780335 57.7024758 113.0752574 55.125 113.0625 C53.36979293 113.0574805 51.61458448 113.05291838 49.859375 113.04882812 C45.57288268 113.03784534 41.28645643 113.02060492 37 113 C37 111.35 37 109.7 37 108 C38.11858398 107.99589111 39.23716797 107.99178223 40.38964844 107.98754883 C44.59468817 107.9655495 48.79881952 107.91104968 53.00341797 107.84741211 C54.81289879 107.8244116 56.62251008 107.80987913 58.43212891 107.80444336 C69.27379524 107.76548768 78.26461715 107.3658005 88 102 C89.11375 101.4225 90.2275 100.845 91.375 100.25 C95.15199962 97.01257176 97.5587887 93.30632553 100 89 C100.34417969 88.39414062 100.68835938 87.78828125 101.04296875 87.1640625 C104.08749184 80.61762318 103.74715744 73.03252317 103 66 C102.11175542 63.49541663 102.11175542 63.49541663 100.875 61.4375 C99 58 99 58 99.625 54.8125 C100.07875 53.884375 100.5325 52.95625 101 52 C104.3712643 45.04676738 104.06608694 35.7164226 102.3828125 28.26953125 C98.83673259 19.40433147 92.1382059 12.94103069 83.58984375 8.97265625 C77.9519832 6.85526971 72.90210115 5.74754607 66.87133789 5.68115234 C66.18655334 5.67099909 65.50176878 5.66084583 64.79623318 5.6503849 C62.60504544 5.6200325 60.41398562 5.60267533 58.22265625 5.5859375 C56.85964881 5.56897924 55.4966518 5.55116001 54.13366699 5.5324707 C49.1100642 5.46957166 44.08626466 5.42326914 39.0625 5.375 C22.2015625 5.189375 22.2015625 5.189375 5 5 C5 40.64 5 76.28 5 113 C3.35 113 1.7 113 0 113 C0 75.71 0 38.42 0 0 Z " fill="#EF6665" transform="translate(196,190)"/>
<path d="M0 0 C10.51875 -0.0825 21.0375 -0.165 31.875 -0.25 C35.17741699 -0.28641602 38.47983398 -0.32283203 41.88232422 -0.36035156 C44.52310538 -0.37204273 47.16389379 -0.38223354 49.8046875 -0.390625 C50.47766876 -0.40107849 51.15065002 -0.41153198 51.84402466 -0.42230225 C62.90382249 -0.58527666 71.98561205 0.50166163 80.375 8.25 C87.16371313 14.85725381 89.33191938 19.44232492 89.5 29 C89.46071189 35.34212019 88.31732955 39.60933948 85 45 C85 49.19289029 85.31990406 49.84274445 87.5 53.125 C90.409985 58.22163088 91.05081235 62.22473531 90 68 C86.95461891 77.83223037 82.96467078 84.49814942 74.16015625 89.921875 C68.31571591 92.83881086 63.28161809 93.27565716 56.8828125 93.1953125 C56.02565643 93.1924826 55.16850037 93.18965271 54.28536987 93.18673706 C51.56510068 93.17559999 48.84516859 93.1505076 46.125 93.125 C44.27344228 93.11496182 42.42187936 93.10583744 40.5703125 93.09765625 C36.0467464 93.07568188 31.52343023 93.041197 27 93 C27 91.35 27 89.7 27 88 C28.69358643 87.99383667 28.69358643 87.99383667 30.42138672 87.98754883 C34.65246835 87.96560415 38.88264015 87.9111584 43.11328125 87.84741211 C44.93643403 87.82436483 46.75971744 87.80986786 48.58300781 87.80444336 C63.13972155 88.07335951 63.13972155 88.07335951 76 82 C82.067098 75.63140722 84.48697339 69.32086066 84.328125 60.53125 C83.71005867 55.76330973 81.29183715 51.9989896 78.72265625 48.0234375 C78 46 78 46 78.86328125 44 C79.34152344 43.34 79.81976563 42.68 80.3125 42 C84.34484724 36.34366634 84.71141586 30.83577849 84 24 C81.83533339 16.29268386 76.00317198 11.25257517 69.21972656 7.43554688 C63.50036317 5.04901902 57.2859009 5.51848964 51.19140625 5.48828125 C50.01896362 5.47164429 48.846521 5.45500732 47.6385498 5.43786621 C43.28004699 5.38025244 38.92124016 5.34786062 34.5625 5.3125 C19.9290625 5.1578125 19.9290625 5.1578125 5 5 C5 37.34 5 69.68 5 103 C3.35 103 1.7 103 0 103 C0 69.01 0 35.02 0 0 Z " fill="#EE6868" transform="translate(206,200)"/>
<path d="M0 0 C8.745 -0.0825 17.49 -0.165 26.5 -0.25 C29.24634766 -0.28641602 31.99269531 -0.32283203 34.82226562 -0.36035156 C37.01691915 -0.37204206 39.21158139 -0.38223303 41.40625 -0.390625 C43.09379395 -0.4213208 43.09379395 -0.4213208 44.81542969 -0.45263672 C52.64097241 -0.45609018 57.71872697 0.69399766 64.0234375 5.5625 C68.75708154 10.59712719 70.43670267 13.8006219 70.24609375 20.62890625 C69.48406134 27.971028 66.41962242 32.18255785 61 37 C61.928125 37.680625 62.85625 38.36125 63.8125 39.0625 C67.76591065 42.39906644 69.56185471 45.99789336 70.31640625 51.16796875 C70.62239724 56.90283212 69.32551156 61.31358678 66 66 C61.69937869 70.64231451 57.34224876 72.86584398 51.03588867 73.22705078 C49.49654571 73.22673671 47.95717817 73.2155909 46.41796875 73.1953125 C45.60378983 73.1924826 44.7896109 73.18965271 43.95075989 73.18673706 C41.362854 73.17558584 38.77530042 73.15049083 36.1875 73.125 C34.42773939 73.11496365 32.66797333 73.10583894 30.90820312 73.09765625 C26.60533402 73.0756631 22.30272664 73.04116836 18 73 C18 71.68 18 70.36 18 69 C18.98806641 68.9906543 19.97613281 68.98130859 20.99414062 68.97167969 C24.69217501 68.93153064 28.38939905 68.86570606 32.08691406 68.79248047 C33.68120847 68.76441418 35.27563832 68.74312887 36.87011719 68.72900391 C49.0532586 68.80238667 49.0532586 68.80238667 60 64 C63.86060036 59.84985462 64.43144261 56.5922286 64.3359375 51.1484375 C63.8421511 47.9905012 62.95245272 45.72555115 60.36669922 43.75579834 C55.18027605 41.16471127 50.88904762 40.39984578 45.125 40.390625 C44.31506592 40.37408875 43.50513184 40.35755249 42.6706543 40.34051514 C40.11368971 40.29238825 37.55731817 40.27074414 35 40.25 C33.25387697 40.2218106 31.50778116 40.19187905 29.76171875 40.16015625 C25.50786143 40.08663966 21.25432652 40.0368505 17 40 C17 38.35 17 36.7 17 35 C18.57297852 34.98598145 18.57297852 34.98598145 20.17773438 34.97167969 C24.09937728 34.93155622 28.02025398 34.86573774 31.94140625 34.79248047 C33.63271174 34.76439963 35.32414532 34.74312146 37.015625 34.72900391 C39.45899425 34.70739392 41.90084425 34.66065666 44.34375 34.609375 C45.08991577 34.60814636 45.83608154 34.60691772 46.6048584 34.60565186 C52.12558192 34.45448588 56.35105687 33.00609523 61 30 C63.96180532 26.85308185 64.19484462 24.17366976 64.3125 20 C64.18575521 16.29684794 64.00699808 13.21119693 62 10 C60.15017528 8.74172877 60.15017528 8.74172877 58 8 C57.39830994 7.65981842 56.79661987 7.31963684 56.17669678 6.96914673 C53.64569367 5.84224958 51.81206118 5.72389785 49.04785156 5.68115234 C48.05350098 5.66109131 47.05915039 5.64103027 46.03466797 5.62036133 C44.4783667 5.60332153 44.4783667 5.60332153 42.890625 5.5859375 C41.45178955 5.55947144 41.45178955 5.55947144 39.98388672 5.5324707 C36.40609395 5.4694794 32.82802206 5.42324043 29.25 5.375 C21.2475 5.25125 13.245 5.1275 5 5 C5 34.04 5 63.08 5 93 C3.35 93 1.7 93 0 93 C0 62.31 0 31.62 0 0 Z " fill="#E66E6F" transform="translate(216,210)"/>
<path d="M0 0 C6.97125 -0.0825 13.9425 -0.165 21.125 -0.25 C24.41041748 -0.30462402 24.41041748 -0.30462402 27.76220703 -0.36035156 C29.51073223 -0.37204104 31.25926837 -0.38223226 33.0078125 -0.390625 C33.90556396 -0.41108887 34.80331543 -0.43155273 35.72827148 -0.45263672 C41.46501331 -0.45581585 44.61031253 0.21781785 49 4 C50.53214888 7.06429776 50.22938548 9.6165642 50 13 C48.34860695 16.5386994 47.28394771 17.81070153 44 20 C41.17016801 20.17193073 38.44118127 20.23208437 35.61328125 20.1953125 C34.79627243 20.1924826 33.97926361 20.18965271 33.13749695 20.18673706 C30.52901541 20.17554541 27.9208777 20.1504429 25.3125 20.125 C23.54362475 20.11496888 21.77474412 20.10584326 20.00585938 20.09765625 C15.67044051 20.07560942 11.33527855 20.0410867 7 20 C7 18.35 7 16.7 7 15 C8.08531006 14.97494385 9.17062012 14.9498877 10.28881836 14.92407227 C14.301316 14.83016245 18.31363382 14.72990233 22.32592773 14.62768555 C24.06514288 14.58427427 25.80440235 14.54260388 27.54370117 14.50268555 C30.03838488 14.44513232 32.5328441 14.3813958 35.02734375 14.31640625 C35.80963852 14.29969376 36.59193329 14.28298126 37.39793396 14.26576233 C40.99871781 14.49351269 40.99871781 14.49351269 44 13 C44.16666667 10 44.16666667 10 44 7 C34.79553249 -2.20446751 18.01257783 5.34243626 5 5 C5 30.74 5 56.48 5 83 C3.35 83 1.7 83 0 83 C0 55.61 0 28.22 0 0 Z " fill="#F35B5B" transform="translate(226,220)"/>
<path d="M0 0 C5.76369255 0.76849234 9.92091064 5.58742262 13.55859375 9.80859375 C17.98702432 15.70878759 19.38727299 21.44432291 19.375 28.8125 C19.37773926 29.51737549 19.38047852 30.22225098 19.38330078 30.94848633 C19.28667963 36.13203229 18.19093484 39.74560682 15.765625 44.24609375 C14.74127171 46.1197438 14.74127171 46.1197438 15.625 48.75 C16.305625 49.86375 16.305625 49.86375 17 51 C20.3350899 57.87862292 20.04138999 66.57409255 18.3125 73.921875 C14.74526617 83.49395244 8.91525635 90.33907876 -0.05126953 95.0859375 C-9.6034505 99.23177497 -19.49321165 98.44063148 -29.6875 98.25 C-31.56443402 98.22989983 -33.44138888 98.2116553 -35.31835938 98.1953125 C-39.87942806 98.15160563 -44.43947988 98.08277384 -49 98 C-49 96.35 -49 94.7 -49 93 C-47.8354126 92.9906543 -46.6708252 92.98130859 -45.47094727 92.97167969 C-41.11510151 92.93155172 -36.75994521 92.86573131 -32.40454102 92.79248047 C-30.52605096 92.76440236 -28.64744566 92.7431229 -26.76879883 92.72900391 C-24.05490671 92.70739075 -21.34238128 92.66064953 -18.62890625 92.609375 C-17.38615685 92.60753204 -17.38615685 92.60753204 -16.11830139 92.60565186 C-9.98862744 92.45459429 -5.41062228 90.82099578 0 88 C1.051875 87.46375 2.10375 86.9275 3.1875 86.375 C9.16424055 81.32797465 13.3111291 73.48265741 14.28515625 65.73046875 C14.64557927 59.71417673 13.41732066 56.01163278 10.09375 51.0078125 C9 49 9 49 9 45 C9.66 43.9275 10.32 42.855 11 41.75 C14.56692378 34.93576927 14.35770453 25.46728587 12.15234375 18.2109375 C8.89536608 11.78530699 3.47343135 6.66435252 -3 3.5625 C-3.66 3.376875 -4.32 3.19125 -5 3 C-4.0409375 2.5359375 -4.0409375 2.5359375 -3.0625 2.0625 C-1.06389179 1.1654837 -1.06389179 1.1654837 0 0 Z " fill="#FEF0F0" transform="translate(281,200)"/>
<path d="M0 0 C14.540625 -0.1546875 14.540625 -0.1546875 29.375 -0.3125 C32.41638184 -0.35802002 35.45776367 -0.40354004 38.59130859 -0.45043945 C41.02700704 -0.46505522 43.46271778 -0.47779331 45.8984375 -0.48828125 C47.14278564 -0.51386108 48.38713379 -0.53944092 49.66918945 -0.5657959 C58.89371466 -0.5703761 65.58874584 1.21151113 72.65625 7.28125 C73.2646875 8.0134375 73.873125 8.745625 74.5 9.5 C75.1290625 10.2321875 75.758125 10.964375 76.40625 11.71875 C80.27897003 17.26205513 80.66094494 22.42059356 80 29 C78.87360951 33.51327697 77.08508707 37.47418621 74 41 C74.9648121 42.9730842 75.94231874 44.90358389 77.0703125 46.7890625 C80.1659233 52.17771834 80.94459469 56.84582248 80 63 C77.99947713 69.6434476 74.64483629 75.69221421 68.66796875 79.4765625 C64.05478009 81.95260679 60.36068608 83.70535343 55 83 C55 82.67 55 82.34 55 82 C56.65 82 58.3 82 60 82 C59.67 81.34 59.34 80.68 59 80 C40.685 79.505 40.685 79.505 22 79 C22 77.02 22 75.04 22 73 C33.55 73 45.1 73 57 73 C57 73.33 57 73.66 57 74 C45.78 74 34.56 74 23 74 C23 75.32 23 76.64 23 78 C28.12350369 77.95562079 33.24580141 77.88555343 38.36865234 77.79248047 C40.10846314 77.76439297 41.84839865 77.74311806 43.58837891 77.72900391 C46.1012297 77.70740347 48.61260033 77.66067014 51.125 77.609375 C51.89303955 77.60814636 52.6610791 77.60691772 53.45239258 77.60565186 C60.20377758 77.42578884 65.61431054 75.44847076 70.375 70.5625 C74.26780398 64.42384756 74.76414734 59.05292425 73.6875 51.93359375 C73.02162987 49.08580989 72.57517502 47.37108066 70.0625 45.75 C69.0415625 45.37875 69.0415625 45.37875 68 45 C66.97451179 44.02615508 65.97054504 43.02861184 65 42 C65.48210937 41.49210937 65.96421875 40.98421875 66.4609375 40.4609375 C72.0570381 34.36232991 74.53751805 29.55379754 74.3125 21.171875 C73.62240562 16.37571906 70.53774489 13.33910657 67.0625 10.25 C64.36547702 8.26851373 62.16055155 7.02253138 59 6 C59.99 5.67 60.98 5.34 62 5 C62 4.01 62 3.02 62 2 C31.805 1.505 31.805 1.505 1 1 C1 33.01 1 65.02 1 98 C0.67 98 0.34 98 0 98 C0 65.66 0 33.32 0 0 Z " fill="#FEE9EA" transform="translate(211,205)"/>
<path d="M0 0 C22.11 0 44.22 0 67 0 C67.495 0.99 67.495 0.99 68 2 C47.21 2.33 26.42 2.66 5 3 C4.67 38.97 4.34 74.94 4 112 C2.68 112 1.36 112 0 112 C0 75.04 0 38.08 0 0 Z " fill="#E85F5E" transform="translate(197,191)"/>
<path d="M0 0 C7.92 -0.103125 15.84 -0.20625 24 -0.3125 C26.4853125 -0.35802002 28.970625 -0.40354004 31.53125 -0.45043945 C33.52081964 -0.4650547 35.51040433 -0.47779291 37.5 -0.48828125 C38.51707031 -0.51386108 39.53414063 -0.53944092 40.58203125 -0.5657959 C47.34965944 -0.56991046 51.76270478 0.61510321 57 5 C60.41014893 8.72985039 60.57091773 12.61238675 60.41796875 17.4921875 C59.74708422 21.51749468 57.97106021 24.24574688 55 27 C52.1875 28.4375 52.1875 28.4375 50 29 C50 28.34 50 27.68 50 27 C51.32 26.67 52.64 26.34 54 26 C54 25.34 54 24.68 54 24 C53.01 23.67 52.02 23.34 51 23 C51.495 22.319375 51.99 21.63875 52.5 20.9375 C54.36135897 17.29233869 54.51493817 15.0459428 54 11 C52.13291495 8.63502561 50.67938569 7.33969285 48 6 C46.61182327 5.88273341 45.21851286 5.82318594 43.82568359 5.79467773 C42.53457169 5.7647599 42.53457169 5.7647599 41.21737671 5.73423767 C40.28712677 5.71752518 39.35687683 5.70081268 38.3984375 5.68359375 C37.44683746 5.66281265 36.49523743 5.64203156 35.51480103 5.62062073 C32.46827568 5.55511867 29.42166257 5.4962372 26.375 5.4375 C24.31249084 5.39431541 22.24999063 5.35070114 20.1875 5.30664062 C15.12509046 5.1994366 10.06259245 5.09817098 5 5 C5 4.01 5 3.02 5 2 C3.68 1.67 2.36 1.34 1 1 C1 29.71 1 58.42 1 88 C0.67 88 0.34 88 0 88 C0 58.96 0 29.92 0 0 Z " fill="#FEEDEC" transform="translate(221,215)"/>
<path d="M0 0 C3.65316671 1.24976756 4.78065836 1.67098753 7 5 C7.46229036 9.99273591 7.08578614 12.99990685 4 17 C0.16327717 19.55781522 -2.94535987 19.25306456 -7.38671875 19.1953125 C-8.20372757 19.1924826 -9.02073639 19.18965271 -9.86250305 19.18673706 C-12.47098459 19.17554541 -15.0791223 19.1504429 -17.6875 19.125 C-19.45637525 19.11496888 -21.22525588 19.10584326 -22.99414062 19.09765625 C-27.32955949 19.07560942 -31.66472145 19.0410867 -36 19 C-36 17.35 -36 15.7 -36 14 C-34.91468994 13.97494385 -33.82937988 13.9498877 -32.71118164 13.92407227 C-28.698684 13.83016245 -24.68636618 13.72990233 -20.67407227 13.62768555 C-18.93485712 13.58427427 -17.19559765 13.54260388 -15.45629883 13.50268555 C-12.96161512 13.44513232 -10.4671559 13.3813958 -7.97265625 13.31640625 C-7.19036148 13.29969376 -6.40806671 13.28298126 -5.60206604 13.26576233 C-2.00128219 13.49351269 -2.00128219 13.49351269 1 12 C1.16666667 9 1.16666667 9 1 6 C-8.20446751 -3.20446751 -24.98742217 4.34243626 -38 4 C-38 29.74 -38 55.48 -38 82 C-38.33 82 -38.66 82 -39 82 C-39 55.6 -39 29.2 -39 2 C-26.13 2 -13.26 2 0 2 C0 1.34 0 0.68 0 0 Z " fill="#EE898A" transform="translate(269,221)"/>
<path d="M0 0 C0.66 0 1.32 0 2 0 C3.72419181 7.38939346 2.45871455 11.60110258 -1.2109375 18.203125 C-7.01352407 27.27441755 -15.6572962 32.59033524 -26.14282227 35.06665039 C-30.80270157 36.06988438 -35.22073459 36.25961116 -39.97265625 36.1953125 C-41.18543495 36.19106766 -41.18543495 36.19106766 -42.42271423 36.18673706 C-44.96946918 36.17566777 -47.5158539 36.15058958 -50.0625 36.125 C-51.80403133 36.11495302 -53.54556825 36.1058302 -55.28710938 36.09765625 C-59.52487917 36.07577213 -63.76237713 36.04133646 -68 36 C-68 34.35 -68 32.7 -68 31 C-66.88141602 30.99589111 -65.76283203 30.99178223 -64.61035156 30.98754883 C-60.40531183 30.9655495 -56.20118048 30.91104968 -51.99658203 30.84741211 C-50.18710121 30.8244116 -48.37748992 30.80987913 -46.56787109 30.80444336 C-35.75806431 30.76560215 -26.68538828 30.41421175 -17 25 C-16.3719043 24.65815674 -15.74380859 24.31631348 -15.09667969 23.96411133 C-12.43906191 22.35938157 -10.75112279 20.68712579 -8.8125 18.25 C-8.214375 17.5075 -7.61625 16.765 -7 16 C-6.01 16 -5.02 16 -4 16 C-2.68 10.72 -1.36 5.44 0 0 Z " fill="#EF6363" transform="translate(301,267)"/>
<path d="M0 0 C18.5625 -0.0928125 18.5625 -0.0928125 37.5 -0.1875 C41.39490234 -0.21481201 45.28980469 -0.24212402 49.30273438 -0.27026367 C54.09082031 -0.28381348 54.09082031 -0.28381348 56.33850098 -0.28633118 C57.89484232 -0.29091175 59.45117359 -0.30140834 61.00744629 -0.31672668 C63.3768946 -0.33886565 65.74569728 -0.34171212 68.11523438 -0.34057617 C68.79844505 -0.3513705 69.48165573 -0.36216482 70.18556976 -0.37328625 C75.4122593 -0.34001345 79.25373106 0.99886805 84 3 C84 3.66 84 4.32 84 5 C84.66 5 85.32 5 86 5 C86 5.66 86 6.32 86 7 C84.7625 7.020625 83.525 7.04125 82.25 7.0625 C81.55390625 7.07410156 80.8578125 7.08570313 80.140625 7.09765625 C78 7 78 7 76.29046631 6.50672913 C73.23940631 5.83173078 70.33688244 5.83459521 67.21191406 5.79467773 C66.53833359 5.78477814 65.86475311 5.77487854 65.17076111 5.76467896 C62.95241771 5.73318342 60.73405293 5.70835403 58.515625 5.68359375 C56.97433934 5.66301389 55.4330592 5.64201715 53.89178467 5.62062073 C49.84108962 5.5655066 45.79034453 5.51605046 41.73956299 5.46777344 C37.60367394 5.41748044 33.46785728 5.36183513 29.33203125 5.30664062 C21.22141543 5.19918948 13.11073893 5.09771572 5 5 C5.33 4.34 5.66 3.68 6 3 C36.69 2.505 36.69 2.505 68 2 C34.835 1.505 34.835 1.505 1 1 C1 37.96 1 74.92 1 113 C0.67 113 0.34 113 0 113 C0 75.71 0 38.42 0 0 Z " fill="#F27777" transform="translate(196,190)"/>
<path d="M0 0 C1.9171582 -0.01836914 1.9171582 -0.01836914 3.87304688 -0.03710938 C5.08927734 -0.03904297 6.30550781 -0.04097656 7.55859375 -0.04296875 C9.21652954 -0.04913208 9.21652954 -0.04913208 10.90795898 -0.05541992 C13.5625 0.1875 13.5625 0.1875 15.5625 2.1875 C15.8125 5.1875 15.8125 5.1875 15.5625 8.1875 C13.5625 10.1875 13.5625 10.1875 9.93896484 10.41455078 C8.38375311 10.41423357 6.82851949 10.40290299 5.2734375 10.3828125 C4.04580185 10.37856766 4.04580185 10.37856766 2.79336548 10.37423706 C0.17459607 10.36302532 -2.44383364 10.33791929 -5.0625 10.3125 C-6.83593257 10.30247147 -8.60937049 10.2933454 -10.3828125 10.28515625 C-14.73450626 10.26308278 -19.0859455 10.22854644 -23.4375 10.1875 C-23.4375 7.2175 -23.4375 4.2475 -23.4375 1.1875 C-15.61288865 0.12552777 -7.88995698 0.00406489 0 0 Z " fill="#FEF9F9" transform="translate(255.4375,224.8125)"/>
<path d="M0 0 C16.83 0 33.66 0 51 0 C51 0.66 51 1.32 51 2 C35.49 2 19.98 2 4 2 C3.67 31.37 3.34 60.74 3 91 C2.01 91 1.02 91 0 91 C0 60.97 0 30.94 0 0 Z " fill="#FA5858" transform="translate(217,211)"/>
<path d="M0 0 C5.17772746 -0.12385084 10.35458788 -0.21445571 15.53344727 -0.2746582 C17.29401676 -0.29976061 19.05448247 -0.33385028 20.81469727 -0.37719727 C23.34938179 -0.43804115 25.88268575 -0.46625113 28.41796875 -0.48828125 C29.59325386 -0.52699089 29.59325386 -0.52699089 30.7922821 -0.56648254 C34.99394243 -0.56862571 36.55480466 -0.34247743 40.00512695 2.31176758 C42.6129648 5.8260134 42.61286896 7.70991726 42 12 C40.6875 14.875 40.6875 14.875 39 17 C35.24151826 18.25282725 31.74509081 18.12381835 27.83203125 18.09765625 C26.63981209 18.09553383 26.63981209 18.09553383 25.42350769 18.09336853 C22.88646675 18.08777378 20.34951425 18.07522228 17.8125 18.0625 C16.09179815 18.05748432 14.37109492 18.05292153 12.65039062 18.04882812 C8.4335597 18.03780607 4.21679484 18.02054506 0 18 C0 16.68 0 15.36 0 14 C1.0194873 13.97494385 2.03897461 13.9498877 3.08935547 13.92407227 C6.86520354 13.83002996 10.64086627 13.72980163 14.41650391 13.62768555 C16.05187653 13.58432462 17.68729477 13.54265039 19.32275391 13.50268555 C21.67103841 13.44501088 24.01909304 13.38130871 26.3671875 13.31640625 C27.10057343 13.29969376 27.83395935 13.28298126 28.58956909 13.26576233 C32.42202308 13.21362038 32.42202308 13.21362038 36 12 C36.04254356 10.00045254 36.04080783 7.99958364 36 6 C33.99496491 3.99496491 29.99974556 4.74411337 27.24609375 4.68359375 C26.47064713 4.66281265 25.6952005 4.64203156 24.89625549 4.62062073 C22.41009692 4.55504198 19.92382955 4.49620201 17.4375 4.4375 C15.75584796 4.39432267 14.07420706 4.35070864 12.39257812 4.30664062 C8.26183129 4.19935221 4.13097464 4.09810868 0 4 C0 2.68 0 1.36 0 0 Z " fill="#F05D5E" transform="translate(234,255)"/>
<path d="M0 0 C10.291875 -0.04125 20.58375 -0.0825 31.1875 -0.125 C34.43102295 -0.14320801 37.6745459 -0.16141602 41.01635742 -0.18017578 C43.58772618 -0.18601711 46.15909679 -0.19111352 48.73046875 -0.1953125 C49.72727409 -0.20315262 49.72727409 -0.20315262 50.74421692 -0.21115112 C52.71248683 -0.22585129 54.68084515 -0.22667866 56.64916992 -0.22705078 C57.7572551 -0.231492 58.86534027 -0.23593323 60.00700378 -0.24050903 C63.05488441 0.00441036 65.24573215 0.70894506 68 2 C67.67 2.66 67.34 3.32 67 4 C65.70079117 3.75601219 65.70079117 3.75601219 64.37533569 3.50709534 C61.18102034 3.02719569 58.22045999 2.87943131 54.99462891 2.88647461 C53.81779541 2.88659546 52.64096191 2.88671631 51.4284668 2.88684082 C50.20683838 2.89195679 48.98520996 2.89707275 47.7265625 2.90234375 C46.02536255 2.90385437 46.02536255 2.90385437 44.28979492 2.90539551 C40.06818627 2.91061294 35.84659208 2.92457419 31.625 2.9375 C22.17875 2.958125 12.7325 2.97875 3 3 C2.67 35.01 2.34 67.02 2 100 C1.34 100 0.68 100 0 100 C0 67 0 34 0 0 Z " fill="#FB5758" transform="translate(207,201)"/>
<path d="M0 0 C0.66 0 1.32 0 2 0 C2 1.32 2 2.64 2 4 C2.61359375 4.2578125 3.2271875 4.515625 3.859375 4.78125 C7.52523086 6.86837961 8.72156355 10.09294166 10 14 C11.39579047 22.69577463 8.55486733 29.09255585 3.875 36.25 C-0.81659985 40.73761725 -6.10131924 43.75011373 -12.625 44.3125 C-13.800625 44.1578125 -13.800625 44.1578125 -15 44 C-15 43.67 -15 43.34 -15 43 C-13.35 43 -11.7 43 -10 43 C-10.33 42.34 -10.66 41.68 -11 41 C-29.315 40.505 -29.315 40.505 -48 40 C-48 38.02 -48 36.04 -48 34 C-36.45 34 -24.9 34 -13 34 C-13 34.33 -13 34.66 -13 35 C-24.22 35 -35.44 35 -47 35 C-47 36.32 -47 37.64 -47 39 C-41.87649631 38.95562079 -36.75419859 38.88555343 -31.63134766 38.79248047 C-29.89153686 38.76439297 -28.15160135 38.74311806 -26.41162109 38.72900391 C-23.8987703 38.70740347 -21.38739967 38.66067014 -18.875 38.609375 C-18.10696045 38.60814636 -17.3389209 38.60691772 -16.54760742 38.60565186 C-9.79622242 38.42578884 -4.38568946 36.44847076 0.375 31.5625 C4.25698387 25.44091004 4.8275087 20.00224357 3.65234375 12.8984375 C3.17950063 10.78057092 3.17950063 10.78057092 2 8 C1.01 7.67 0.02 7.34 -1 7 C-1.8125 5.125 -1.8125 5.125 -2 3 C-1.34 2.01 -0.68 1.02 0 0 Z " fill="#FEEBEB" transform="translate(281,244)"/>
<path d="M0 0 C1.15144501 -0.00637985 2.30289001 -0.0127597 3.48922729 -0.01933289 C5.37038742 -0.02100212 5.37038742 -0.02100212 7.28955078 -0.02270508 C8.56839142 -0.02603348 9.84723206 -0.02936188 11.16482544 -0.03279114 C13.87681929 -0.03878896 16.58878124 -0.04063043 19.30078125 -0.04003906 C22.77677137 -0.03993753 26.25255682 -0.05357777 29.72849846 -0.07081127 C33.04051916 -0.08460415 36.3525017 -0.08402011 39.66455078 -0.08520508 C41.53963821 -0.09598335 41.53963821 -0.09598335 43.4526062 -0.10697937 C44.61035553 -0.10390274 45.76810486 -0.10082611 46.9609375 -0.09765625 C47.98162323 -0.09908127 49.00230896 -0.10050629 50.05392456 -0.10197449 C52.60986328 0.14526367 52.60986328 0.14526367 55.60986328 2.14526367 C35.80986328 2.14526367 16.00986328 2.14526367 -4.39013672 2.14526367 C-4.39013672 34.48526367 -4.39013672 66.82526367 -4.39013672 100.14526367 C-5.71013672 100.14526367 -7.03013672 100.14526367 -8.39013672 100.14526367 C-8.39013672 99.48526367 -8.39013672 98.82526367 -8.39013672 98.14526367 C-7.73013672 98.14526367 -7.07013672 98.14526367 -6.39013672 98.14526367 C-6.39235733 96.93226089 -6.39457794 95.71925812 -6.39686584 94.46949768 C-6.41709544 83.06479763 -6.43210798 71.6601012 -6.44194889 60.25538731 C-6.44717818 54.39144203 -6.45427666 48.52751119 -6.46557617 42.66357422 C-6.47640342 37.00964655 -6.4824132 31.35573281 -6.48501396 25.70179558 C-6.48686851 23.53952757 -6.49048967 21.37726036 -6.49586678 19.21499825 C-6.50307504 16.1976771 -6.50412775 13.18041424 -6.50366211 10.16308594 C-6.50725739 9.25965958 -6.51085266 8.35623322 -6.51455688 7.4254303 C-6.5021123 0.02432035 -6.5021123 0.02432035 0 0 Z " fill="#E36263" transform="translate(215.39013671875,202.854736328125)"/>
<path d="M0 0 C4.98041064 -0.09948577 9.96023252 -0.17175686 14.94140625 -0.21972656 C16.63291511 -0.2397406 18.32435567 -0.26696073 20.015625 -0.30175781 C22.45850554 -0.35073065 24.90046511 -0.37307033 27.34375 -0.390625 C28.08991577 -0.41127014 28.83608154 -0.43191528 29.6048584 -0.45318604 C35.16239 -0.45551761 39.33962895 0.94734083 44 4 C47.26325475 7.56918489 47.51137744 11.1084164 47.36328125 15.77734375 C46.80311999 19.20456695 45.21548057 21.39355227 43 24 C42.01 24.495 42.01 24.495 41 25 C41 24.34 41 23.68 41 23 C40.51950195 23.3304834 40.03900391 23.6609668 39.54394531 24.00146484 C35.82523495 25.46111219 32.22027714 25.13240472 28.296875 24.9765625 C27.45908508 24.95153656 26.62129517 24.92651062 25.75811768 24.90072632 C23.08832251 24.81870568 20.41928704 24.72204751 17.75 24.625 C15.9375308 24.56674206 14.12503063 24.50943917 12.3125 24.453125 C7.87456488 24.31315369 3.43725436 24.16005494 -1 24 C-1 22.02 -1 20.04 -1 18 C10.55 18 22.1 18 34 18 C34 18.33 34 18.66 34 19 C22.78 19 11.56 19 0 19 C0 20.32 0 21.64 0 23 C5.05403538 22.90635035 10.10759821 22.80023093 15.16113281 22.68261719 C16.87981011 22.64436673 18.59856638 22.60950697 20.31738281 22.578125 C22.7900004 22.53238872 25.26207613 22.47440916 27.734375 22.4140625 C28.50118591 22.40251129 29.26799683 22.39096008 30.05804443 22.37905884 C35.36353087 22.28310467 35.36353087 22.28310467 40 20 C41.19754817 16.40735548 41.33094958 13.77282526 41 10 C39.57695544 7.64695086 39.57695544 7.64695086 37 6 C34.0529474 5.58219569 31.46448237 5.39521882 28.515625 5.390625 C27.70003113 5.37408875 26.88443726 5.35755249 26.04412842 5.34051514 C23.44600903 5.29203417 20.84847491 5.27066477 18.25 5.25 C16.48564764 5.22184028 14.72132254 5.19191284 12.95703125 5.16015625 C8.63806903 5.08627558 4.31943171 5.03670188 0 5 C0 6.32 0 7.64 0 9 C11.55 9 23.1 9 35 9 C35 9.33 35 9.66 35 10 C23.12 10 11.24 10 -1 10 C-1 8.02 -1 6.04 -1 4 C11.54 3.67 24.08 3.34 37 3 C33.89008604 1.44504302 30.56655951 1.75923044 27.1484375 1.68359375 C26.37440582 1.66281265 25.60037415 1.64203156 24.80288696 1.62062073 C22.32701608 1.55516552 19.85103798 1.49625913 17.375 1.4375 C15.69790552 1.39431093 14.02082193 1.35069652 12.34375 1.30664062 C8.22927692 1.19948829 4.11469586 1.09820955 0 1 C0 0.67 0 0.34 0 0 Z " fill="#FECFCE" transform="translate(234,250)"/>
<path d="M0 0 C22.11 0 44.22 0 67 0 C67 0.33 67 0.66 67 1 C65.81942772 1.0154612 65.81942772 1.0154612 64.61500549 1.03123474 C57.21301893 1.12904188 49.81111932 1.23153186 42.40927219 1.33933926 C38.60352595 1.39460294 34.79777208 1.44802829 30.99194336 1.49731445 C27.32200665 1.54490741 23.65216609 1.59724809 19.98234367 1.65294075 C18.57927773 1.67338737 17.1761854 1.69209657 15.7730732 1.70907402 C13.81423074 1.73306687 11.85547299 1.76370199 9.89672852 1.79467773 C8.77976089 1.81022202 7.66279327 1.8257663 6.51197815 1.84178162 C4.06138999 1.71819038 4.06138999 1.71819038 3 3 C2.89253688 4.37829815 2.85320669 5.76199051 2.84178162 7.14442444 C2.8319928 8.03769943 2.82220398 8.93097443 2.81211853 9.85131836 C2.80636307 10.83890137 2.8006076 11.82648438 2.79467773 12.84399414 C2.78477814 13.87801865 2.77487854 14.91204315 2.76467896 15.97740173 C2.73295787 19.41329619 2.70826476 22.84920451 2.68359375 26.28515625 C2.66303337 28.660277 2.64203716 31.03539402 2.62062073 33.4105072 C2.56530539 39.67572005 2.51593798 45.94096643 2.46777344 52.20623779 C2.41762732 58.59390259 2.36190538 64.98151842 2.30664062 71.36914062 C2.19894339 83.91271834 2.0973351 96.45633782 2 109 C1.34 108.67 0.68 108.34 0 108 C0 72.36 0 36.72 0 0 Z " fill="#F75859" transform="translate(198,192)"/>
<path d="M0 0 C2.3125 0 2.3125 0 5 1 C7.23939863 4.540785 8.08923697 7.90684707 7.75 12.0625 C7.5025 13.031875 7.255 14.00125 7 15 C6.9071875 16.7325 6.9071875 16.7325 6.8125 18.5 C5.69591456 23.3099065 3.75551646 24.85762908 0 28 C-0.66 28 -1.32 28 -2 28 C-1.505 29.98 -1.505 29.98 -1 32 C-1.57868835 31.83923477 -2.15737671 31.67846954 -2.75360107 31.51283264 C-6.35923739 30.68969835 -10.02032091 30.75952762 -13.703125 30.68359375 C-14.95980988 30.6524221 -14.95980988 30.6524221 -16.24188232 30.62062073 C-18.91117356 30.5553745 -21.58056098 30.49635642 -24.25 30.4375 C-26.06250984 30.39429106 -27.87501005 30.35067601 -29.6875 30.30664062 C-34.12490209 30.19971871 -38.56240068 30.09838134 -43 30 C-43 29.01 -43 28.02 -43 27 C-31.45 27 -19.9 27 -8 27 C-8 26.34 -8 25.68 -8 25 C-7.45730469 24.76925781 -6.91460937 24.53851563 -6.35546875 24.30078125 C-3.0773624 22.80643727 -0.48709363 21.51753698 2 18.875 C3.97197044 13.20558498 3.7851355 7.89741079 1.5 2.375 C1.005 1.59125 0.51 0.8075 0 0 Z " fill="#F95859" transform="translate(277,219)"/>
<path d="M0 0 C0.33 0 0.66 0 1 0 C1.1875 2.375 1.1875 2.375 1 5 C-2.83672283 7.55781522 -5.94535987 7.25306456 -10.38671875 7.1953125 C-11.20372757 7.1924826 -12.02073639 7.18965271 -12.86250305 7.18673706 C-15.47098459 7.17554541 -18.0791223 7.1504429 -20.6875 7.125 C-22.45637525 7.11496888 -24.22525588 7.10584326 -25.99414062 7.09765625 C-30.32955949 7.07560942 -34.66472145 7.0410867 -39 7 C-39 5.35 -39 3.7 -39 2 C-37.28115601 1.96241577 -37.28115601 1.96241577 -35.52758789 1.92407227 C-31.29146402 1.83016894 -27.05551072 1.72990725 -22.81958008 1.62768555 C-20.98335753 1.5842718 -19.14709292 1.54260161 -17.31079102 1.50268555 C-14.67711689 1.44513831 -12.04365579 1.38140002 -9.41015625 1.31640625 C-8.58411392 1.29969376 -7.75807159 1.28298126 -6.90699768 1.26576233 C-3.14523247 1.52192567 -3.14523247 1.52192567 0 0 Z " fill="#FE5757" transform="translate(272,233)"/>
<path d="M0 0 C10.56 -0.061875 21.12 -0.12375 32 -0.1875 C35.320625 -0.21481201 38.64125 -0.24212402 42.0625 -0.27026367 C44.70832964 -0.2790294 47.35416333 -0.28667314 50 -0.29296875 C51.01731201 -0.30472893 51.01731201 -0.30472893 52.05517578 -0.31672668 C59.70735153 -0.40067855 66.04354059 -0.36565307 73 3 C72.34 4.32 71.68 5.64 71 7 C71.99 7.33 72.98 7.66 74 8 C73.34 8.33 72.68 8.66 72 9 C69.64018187 8.06421005 67.30368736 7.06652192 65 6 C65.99 5.34 66.98 4.68 68 4 C64.5415631 1.89493004 61.77547869 1.72930574 57.76269531 1.68115234 C56.48410645 1.66109131 55.20551758 1.64103027 53.88818359 1.62036133 C52.53483293 1.60862988 51.18148004 1.59715315 49.828125 1.5859375 C48.59368652 1.56829346 47.35924805 1.55064941 46.08740234 1.5324707 C41.47506754 1.46939265 36.86251413 1.42321364 32.25 1.375 C21.9375 1.25125 11.625 1.1275 1 1 C1 34.66 1 68.32 1 103 C0.67 103 0.34 103 0 103 C0 69.01 0 35.02 0 0 Z " fill="#E97071" transform="translate(206,200)"/>
<path d="M0 0 C0 1.32 0 2.64 0 4 C-3.8215538 5.27385127 -7.4068447 5.12353188 -11.38671875 5.09765625 C-12.20372757 5.0962413 -13.02073639 5.09482635 -13.86250305 5.09336853 C-16.47087268 5.08777294 -19.07915634 5.07522129 -21.6875 5.0625 C-23.45637897 5.05748443 -25.22525928 5.05292162 -26.99414062 5.04882812 C-31.32946019 5.03780496 -35.66471552 5.02054338 -40 5 C-40 3.68 -40 2.36 -40 1 C-35.26777475 0.85643725 -30.53551585 0.71405943 -25.80322266 0.57275391 C-24.19514007 0.52457287 -22.58706696 0.47607458 -20.97900391 0.42724609 C-18.66050629 0.35690158 -16.34197641 0.28771819 -14.0234375 0.21875 C-13.31069672 0.19687622 -12.59795593 0.17500244 -11.86361694 0.15246582 C-7.9075072 0.03603213 -3.95777099 -0.02165675 0 0 Z " fill="#EE5E5E" transform="translate(274,278)"/>
<path d="M0 0 C5.78235095 0.77098013 9.93965677 5.61646567 13.59375 9.84375 C16.06048978 13.11361436 17.62670051 15.89370566 18 20 C17.34 20.33 16.68 20.66 16 21 C15.90912109 22.78857422 15.90912109 22.78857422 15.81640625 24.61328125 C15.73198851 26.17969925 15.64734113 27.74610488 15.5625 29.3125 C15.52318359 30.09818359 15.48386719 30.88386719 15.44335938 31.69335938 C15.40146484 32.45068359 15.35957031 33.20800781 15.31640625 33.98828125 C15.27974854 34.68477783 15.24309082 35.38127441 15.20532227 36.09887695 C15 38 15 38 14 41 C13.34 41 12.68 41 12 41 C12.15726562 40.49855469 12.31453125 39.99710938 12.4765625 39.48046875 C14.020366 32.16468349 14.49670256 22.7196949 11 15.9375 C7.15154265 10.23041268 1.7558169 4.9000735 -5 3 C-4.360625 2.690625 -3.72125 2.38125 -3.0625 2.0625 C-1.06389179 1.1654837 -1.06389179 1.1654837 0 0 Z " fill="#FEE7E8" transform="translate(281,200)"/>
<path d="M0 0 C6.97421219 -0.07633598 13.94831579 -0.12871974 20.92285156 -0.16479492 C23.29333523 -0.17984099 25.66379125 -0.20028273 28.03417969 -0.22631836 C31.4499394 -0.26288506 34.86532962 -0.27976868 38.28125 -0.29296875 C39.33364868 -0.30845261 40.38604736 -0.32393646 41.47033691 -0.33988953 C47.70622095 -0.34130192 52.30717576 0.41857813 58 3 C57.34 3.99 56.68 4.98 56 6 C54.82638916 5.84152588 53.65277832 5.68305176 52.44360352 5.51977539 C45.61429418 4.76510092 38.76584762 4.76654197 31.90234375 4.68359375 C30.45788538 4.6629813 29.01343245 4.64198384 27.56898499 4.62062073 C23.79619808 4.56584255 20.02336082 4.51624117 16.25048828 4.46777344 C12.38895266 4.41723191 8.52748875 4.36171758 4.66601562 4.30664062 C-2.88926192 4.19960171 -10.44459974 4.09803998 -18 4 C-18 3.67 -18 3.34 -18 3 C4.11 3 26.22 3 49 3 C49 2.34 49 1.68 49 1 C32.83 1 16.66 1 0 1 C0 0.67 0 0.34 0 0 Z " fill="#FEF3F4" transform="translate(224,196)"/>
<path d="M0 0 C11.55 0 23.1 0 35 0 C35 0.33 35 0.66 35 1 C23.78 1 12.56 1 1 1 C1 2.32 1 3.64 1 5 C6.12350369 4.95562079 11.24580141 4.88555343 16.36865234 4.79248047 C18.10846314 4.76439297 19.84839865 4.74311806 21.58837891 4.72900391 C24.1012297 4.70740347 26.61260033 4.66067014 29.125 4.609375 C29.89303955 4.60814636 30.6610791 4.60691772 31.45239258 4.60565186 C36.51003623 4.47091165 39.92357066 3.36864261 44.26904297 0.75592041 C46 0 46 0 49 1 C49 2.32 49 3.64 49 5 C38.62642369 10.74031891 38.62642369 10.74031891 33 10 C33 9.67 33 9.34 33 9 C34.65 9 36.3 9 38 9 C37.505 8.01 37.505 8.01 37 7 C18.685 6.505 18.685 6.505 0 6 C0 4.02 0 2.04 0 0 Z " fill="#FECFCE" transform="translate(233,278)"/>
<path d="M0 0 C12.87 0 25.74 0 39 0 C39 0.99 39 1.98 39 3 C26.13 3 13.26 3 0 3 C0 2.01 0 1.02 0 0 Z " fill="#F55A5A" transform="translate(235,289)"/>
<path d="M0 0 C5.21475559 0.09352117 10.42904614 0.19961178 15.64331055 0.31738281 C17.41732771 0.35567679 19.19142264 0.39052895 20.96557617 0.421875 C23.51509399 0.46751672 26.0640763 0.52551185 28.61328125 0.5859375 C29.40712723 0.59748871 30.20097321 0.60903992 31.01887512 0.62094116 C34.84323908 0.72355385 36.74596099 0.83064066 40 3 C39 4 39 4 35.30639648 4.11352539 C33.66128708 4.11336624 32.01617269 4.10766988 30.37109375 4.09765625 C29.07474754 4.09553383 29.07474754 4.09553383 27.75221252 4.09336853 C24.98060708 4.08775239 22.2090812 4.07519719 19.4375 4.0625 C17.5631522 4.05748708 15.68880315 4.05292381 13.81445312 4.04882812 C9.20960456 4.03777772 4.60481579 4.0205023 0 4 C0 2.68 0 1.36 0 0 Z " fill="#FEFBFC" transform="translate(232,250)"/>
<path d="M0 0 C2.3125 0 2.3125 0 5 1 C7.23939863 4.540785 8.08923697 7.90684707 7.75 12.0625 C7.5025 13.031875 7.255 14.00125 7 15 C6.95875 16.155 6.9175 17.31 6.875 18.5 C5.66815923 23.32736307 2.94193742 25.19021171 -1 28 C-1.33 27.34 -1.66 26.68 -2 26 C-3.98 26 -5.96 26 -8 26 C-5 24 -5 24 -2.5 22.6875 C0.54535776 20.63188351 1.61710413 19.42084768 3 16 C3.74090994 9.93062813 3.33472005 5.27997342 0 0 Z " fill="#ED5F61" transform="translate(277,219)"/>
<path d="M0 0 C6.03100779 0.125646 8.93528005 2.03396966 13.265625 6.1796875 C16.77381154 9.8617031 18.15155591 12.36352576 18.3125 17.4375 C18.19138361 21.24947893 17.45661021 24.44951261 16 28 C15.67 28 15.34 28 15 28 C15.10699219 27.29875 15.21398437 26.5975 15.32421875 25.875 C16.1620712 19.24425377 15.85573906 15.05416681 13 9 C11.948125 9.12375 11.948125 9.12375 10.875 9.25 C6.9523773 8.90890237 5.0168563 7.48052629 2 5 C0.625 2.25 0.625 2.25 0 0 Z " fill="#EE6968" transform="translate(268,211)"/>
<path d="M0 0 C11.55 0 23.1 0 35 0 C35 0.33 35 0.66 35 1 C24.11 1 13.22 1 2 1 C2 1.99 2 2.98 2 4 C6.66344559 3.90656397 11.32636586 3.80049386 15.98925781 3.68261719 C17.57609138 3.64429415 19.16301281 3.60944712 20.75 3.578125 C23.02896566 3.53254569 25.30732468 3.47454162 27.5859375 3.4140625 C28.29744965 3.40251129 29.00896179 3.39096008 29.74203491 3.37905884 C33.82103657 3.36591761 33.82103657 3.36591761 37 1 C37.99 1.66 38.98 2.32 40 3 C36.16327717 5.55781522 33.05464013 5.25306456 28.61328125 5.1953125 C27.79627243 5.1924826 26.97926361 5.18965271 26.13749695 5.18673706 C23.52901541 5.17554541 20.9208777 5.1504429 18.3125 5.125 C16.54362475 5.11496888 14.77474412 5.10584326 13.00585938 5.09765625 C8.67044051 5.07560942 4.33527855 5.0410867 0 5 C0 3.35 0 1.7 0 0 Z " fill="#E57474" transform="translate(233,235)"/>
<path d="M0 0 C3.65150559 5.47725839 3.65465864 12.55327675 3 19 C2.34 19.99 1.68 20.98 1 22 C0.34 22 -0.32 22 -1 22 C-1 22.99 -1 23.98 -1 25 C-1.66 25 -2.32 25 -3 25 C-2.69482108 21.02023584 -2.37963664 17.04132772 -2.0625 13.0625 C-1.97548828 11.92619141 -1.88847656 10.78988281 -1.79882812 9.61914062 C-1.71181641 8.53955078 -1.62480469 7.45996094 -1.53515625 6.34765625 C-1.456604 5.34742432 -1.37805176 4.34719238 -1.29711914 3.31665039 C-1 1 -1 1 0 0 Z " fill="#F05F5E" transform="translate(302,219)"/>
<path d="M0 0 C0.66 0 1.32 0 2 0 C4.00149385 8.5778308 1.34552842 13.55592087 -3 21 C-3.33 20.34 -3.66 19.68 -4 19 C-4.66 19 -5.32 19 -6 19 C-6 18.01 -6 17.02 -6 16 C-5.34 16 -4.68 16 -4 16 C-2.68 10.72 -1.36 5.44 0 0 Z " fill="#EF6466" transform="translate(301,267)"/>
<path d="M0 0 C5.01073614 5.84585882 6.31521974 10.16712972 6.125 17.8125 C6.11597656 18.50537109 6.10695313 19.19824219 6.09765625 19.91210938 C6.07426157 21.60822395 6.03839641 23.30415871 6 25 C5.67 25 5.34 25 5 25 C4.67 20.71 4.34 16.42 4 12 C3.01 12 2.02 12 1 12 C-2 6.25 -2 6.25 -2 4 C-1.34 4 -0.68 4 0 4 C0 2.68 0 1.36 0 0 Z " fill="#FEEAE9" transform="translate(294,246)"/>
<path d="M0 0 C0.66 0 1.32 0 2 0 C3.01259619 3.36992013 3.16555609 6.48897481 3.1875 10 C3.20167969 11.03125 3.21585937 12.0625 3.23046875 13.125 C3.00276947 15.96545203 2.46504061 17.59107948 1 20 C0.67 20 0.34 20 0 20 C0 13.4 0 6.8 0 0 Z " fill="#F85858" transform="translate(291,220)"/>
<path d="M0 0 C0.33 1.32 0.66 2.64 1 4 C1.66 4 2.32 4 3 4 C1.50902342 7.7952131 -0.75700849 9.61042731 -4 12 C-4.33 11.34 -4.66 10.68 -5 10 C-6.98 10 -8.96 10 -11 10 C-8 8 -8 8 -5.5 6.6875 C-2.67694899 4.78194057 -1.54051473 2.99994973 0 0 Z " fill="#F06665" transform="translate(280,235)"/>
<path d="M0 0 C0.66 0.33 1.32 0.66 2 1 C2.02701408 3.10409639 2.04640223 5.20829178 2.0625 7.3125 C2.07410156 8.48425781 2.08570313 9.65601563 2.09765625 10.86328125 C2 14 2 14 1 17 C0.34 17 -0.32 17 -1 17 C-1.02684679 14.35409986 -1.04676357 11.70846904 -1.0625 9.0625 C-1.07087891 8.30775391 -1.07925781 7.55300781 -1.08789062 6.77539062 C-1.09652441 4.85005687 -1.05224333 2.92464419 -1 1 C-0.67 0.67 -0.34 0.34 0 0 Z " fill="#EF5D5D" transform="translate(282,255)"/>
<path d="M0 0 C3.28438309 2.42007175 5.4805569 4.19442232 7 8 C7.6580724 13.32264441 7.04197653 18.0226822 5 23 C4.67 23 4.34 23 4 23 C4.10699219 22.29875 4.21398437 21.5975 4.32421875 20.875 C5.1620712 14.24425377 4.85573906 10.05416681 2 4 C0.824375 4.0928125 0.824375 4.0928125 -0.375 4.1875 C-1.24125 4.125625 -2.1075 4.06375 -3 4 C-3.66 3.01 -4.32 2.02 -5 1 C-2.525 1.495 -2.525 1.495 0 2 C0 1.34 0 0.68 0 0 Z " fill="#EC7173" transform="translate(279,216)"/>
<path d="M0 0 C0.495 1.98 0.495 1.98 1 4 C-11.54 4 -24.08 4 -37 4 C-37 3.67 -37 3.34 -37 3 C-36.0212793 2.98018066 -35.04255859 2.96036133 -34.03417969 2.93994141 C-30.39606403 2.86375376 -26.75834147 2.77505705 -23.12060547 2.68261719 C-21.54744235 2.64438171 -19.97419342 2.60951934 -18.40087891 2.578125 C-16.13673277 2.53235578 -13.87317453 2.47438239 -11.609375 2.4140625 C-10.90818542 2.40251129 -10.20699585 2.39096008 -9.48455811 2.37905884 C-5.8466503 2.26960094 -3.1009622 1.98155656 0 0 Z " fill="#F15C5C" transform="translate(272,233)"/>
<path d="M0 0 C3.37996604 3.37996604 4.125 6.6387273 4.125 11.3125 C4.08375 12.529375 4.0425 13.74625 4 15 C3.67 15 3.34 15 3 15 C2.34 12.36 1.68 9.72 1 7 C0.67 11.29 0.34 15.58 0 20 C-0.33 20 -0.66 20 -1 20 C-1.06058594 19.18015625 -1.12117188 18.3603125 -1.18359375 17.515625 C-1.26738281 16.43796875 -1.35117187 15.3603125 -1.4375 14.25 C-1.51871094 13.18265625 -1.59992188 12.1153125 -1.68359375 11.015625 C-1.94090773 8.56320038 -2.31812218 6.36078709 -3 4 C-2.34 4 -1.68 4 -1 4 C-0.67 2.68 -0.34 1.36 0 0 Z " fill="#EE7775" transform="translate(301,213)"/>
<path d="M0 0 C6.38197767 0.48165869 6.38197767 0.48165869 8.9375 2.625 C10.37148358 5.83037505 10.20006114 8.53227365 10 12 C9.67 12 9.34 12 9 12 C8.67 10.35 8.34 8.7 8 7 C7.34 7 6.68 7 6 7 C5.67 7.99 5.34 8.98 5 10 C4.34 8.02 3.68 6.04 3 4 C3.66 4 4.32 4 5 4 C3.74458443 1.48916886 2.49936512 1.12874554 0 0 Z " fill="#EB6668" transform="translate(266,255)"/>
<path d="M0 0 C0.99 0.33 1.98 0.66 3 1 C3.02693575 3.12493141 3.04636628 5.24995912 3.0625 7.375 C3.07410156 8.55835938 3.08570313 9.74171875 3.09765625 10.9609375 C3 14 3 14 2 16 C1.34 16 0.68 16 0 16 C0 10.72 0 5.44 0 0 Z " fill="#FDFDFC" transform="translate(296,257)"/>
<path d="M0 0 C3.16717283 1.58358642 4.73268318 2.45263699 6.3125 5.6875 C6.539375 6.450625 6.76625 7.21375 7 8 C6.01 7.67 5.02 7.34 4 7 C3.01 8.485 3.01 8.485 2 10 C-1.07692308 5.69230769 -1.07692308 5.69230769 -0.6875 2.1875 C-0.460625 1.465625 -0.23375 0.74375 0 0 Z " fill="#EF6566" transform="translate(278,249)"/>
<path d="M0 0 C0.33 0 0.66 0 1 0 C1.36822436 8.82374671 0.97858968 16.04282064 -3 24 C-3.66 24 -4.32 24 -5 24 C-3 18 -3 18 -1.9375 15.375 C-0.53493513 10.32576646 -0.32071515 5.21584108 0 0 Z " fill="#EF7D7C" transform="translate(300,259)"/>
<path d="M0 0 C0.33 0 0.66 0 1 0 C1.28571429 7.42857143 1.28571429 7.42857143 -1 11 C-1.66 10.01 -2.32 9.02 -3 8 C-3.99 8 -4.98 8 -6 8 C-5.34 5.69 -4.68 3.38 -4 1 C-3.34 1 -2.68 1 -2 1 C-1.67 2.32 -1.34 3.64 -1 5 C-0.67 3.35 -0.34 1.7 0 0 Z " fill="#EB6769" transform="translate(275,226)"/>
<path d="M0 0 C0.33 0 0.66 0 1 0 C1.02689216 1.47906892 1.04634621 2.95827483 1.0625 4.4375 C1.07410156 5.26121094 1.08570313 6.08492188 1.09765625 6.93359375 C1 9 1 9 0 10 C-0.2165625 11.7325 -0.2165625 11.7325 -0.4375 13.5 C-0.623125 14.655 -0.80875 15.81 -1 17 C-1.66 17.33 -2.32 17.66 -3 18 C-2.57045059 11.74892565 -1.98598493 5.95795479 0 0 Z " fill="#EB6D6D" transform="translate(324,314)"/>
<path d="M0 0 C1.51553092 3.97450493 0.49888623 7.20481149 -0.4375 11.25 C-0.72496094 12.51328125 -1.01242188 13.7765625 -1.30859375 15.078125 C-1.53675781 16.04234375 -1.76492187 17.0065625 -2 18 C-2.33 18 -2.66 18 -3 18 C-3.02689216 16.52093108 -3.04634621 15.04172517 -3.0625 13.5625 C-3.07410156 12.73878906 -3.08570313 11.91507812 -3.09765625 11.06640625 C-3 9 -3 9 -2 8 C-1.835 6.845 -1.67 5.69 -1.5 4.5 C-1 1 -1 1 0 0 Z " fill="#EB696A" transform="translate(160,248)"/>
<path d="M0 0 C0.66 0.66 1.32 1.32 2 2 C1.6875 4.8125 1.6875 4.8125 1 8 C0.814375 8.94875 0.62875 9.8975 0.4375 10.875 C0.2209375 11.926875 0.2209375 11.926875 0 13 C-0.66 13 -1.32 13 -2 13 C-1.85966889 11.02043559 -1.7125877 9.04134859 -1.5625 7.0625 C-1.48128906 5.96035156 -1.40007812 4.85820312 -1.31640625 3.72265625 C-1 1 -1 1 0 0 Z " fill="#F85757" transform="translate(283,226)"/>
<path d="M0 0 C0.66 0 1.32 0 2 0 C2.390625 5.859375 2.390625 5.859375 2 8 C0.68 9.32 -0.64 10.64 -2 12 C-1.34 8.04 -0.68 4.08 0 0 Z " fill="#FA5856" transform="translate(301,267)"/>
<path d="M0 0 C0 0.99 0 1.98 0 3 C0.99 3.66 1.98 4.32 3 5 C1.02 5.33 -0.96 5.66 -3 6 C-3 5.34 -3 4.68 -3 4 C-4.98 4 -6.96 4 -9 4 C-6.06279492 2.47700477 -3.0831351 1.19899698 0 0 Z " fill="#EB6968" transform="translate(277,285)"/>
<path d="M0 0 C0.33 0 0.66 0 1 0 C1.37952295 6.19887485 0.8352113 10.4477112 -2 16 C-3.3805087 12.23331402 -2.59568159 9.55210827 -1.5625 5.75 C-1.27503906 4.67234375 -0.98757813 3.5946875 -0.69140625 2.484375 C-0.46324219 1.66453125 -0.23507812 0.8446875 0 0 Z " fill="#EA6B6A" transform="translate(338,252)"/>
<path d="M0 0 C0 1.65 0 3.3 0 5 C-0.99 5.495 -0.99 5.495 -2 6 C-2.99 5.67 -3.98 5.34 -5 5 C-5 3.68 -5 2.36 -5 1 C-3 0 -3 0 0 0 Z " fill="#F35E5B" transform="translate(293,288)"/>
<path d="M0 0 C0.66 0 1.32 0 2 0 C2 2.31 2 4.62 2 7 C1.34 7 0.68 7 0 7 C0 7.99 0 8.98 0 10 C-0.66 10 -1.32 10 -2 10 C-1.34 6.7 -0.68 3.4 0 0 Z " fill="#F75A57" transform="translate(301,234)"/>
<path d="M0 0 C0.33 0 0.66 0 1 0 C1 3.3 1 6.6 1 10 C1.66 10 2.32 10 3 10 C2.34 11.98 1.68 13.96 1 16 C0.67 16 0.34 16 0 16 C0 10.72 0 5.44 0 0 Z " fill="#EF5D5B" transform="translate(291,224)"/>
<path d="M0 0 C2.31 0.33 4.62 0.66 7 1 C7.33 2.32 7.66 3.64 8 5 C6.35 4.67 4.7 4.34 3 4 C3 3.34 3 2.68 3 2 C2.01 1.67 1.02 1.34 0 1 C0 0.67 0 0.34 0 0 Z " fill="#F55A5B" transform="translate(271,213)"/>
<path d="M0 0 C-3.14591933 2.80045623 -5.067064 3.35261589 -9.25 3.1875 C-10.14203125 3.16042969 -11.0340625 3.13335937 -11.953125 3.10546875 C-12.96632813 3.05326172 -12.96632813 3.05326172 -14 3 C-14 2.67 -14 2.34 -14 2 C-12.04396149 1.47061343 -10.08507711 0.95173199 -8.125 0.4375 C-7.03445313 0.14746094 -5.94390625 -0.14257812 -4.8203125 -0.44140625 C-2 -1 -2 -1 0 0 Z " fill="#FDDAD8" transform="translate(284,300)"/>
<path d="M0 0 C2.475 0.99 2.475 0.99 5 2 C5 4.31 5 6.62 5 9 C4.34 8.67 3.68 8.34 3 8 C3 6.68 3 5.36 3 4 C2.34 4 1.68 4 1 4 C0.67 2.68 0.34 1.36 0 0 Z " fill="#F8585A" transform="translate(270,223)"/>
<path d="M0 0 C3.3 0 6.6 0 10 0 C10.33 0.99 10.66 1.98 11 3 C7.37 2.34 3.74 1.68 0 1 C0 0.67 0 0.34 0 0 Z " fill="#D03B3B" transform="translate(270,448)"/>
<path d="M0 0 C1.98 0 3.96 0 6 0 C6 0.99 6 1.98 6 3 C3.69 3 1.38 3 -1 3 C-0.67 2.01 -0.34 1.02 0 0 Z " fill="#F65B59" transform="translate(268,278)"/>
<path d="M0 0 C0.66 0 1.32 0 2 0 C2.33 1.98 2.66 3.96 3 6 C2.01 6.495 2.01 6.495 1 7 C0.01 6.01 -0.98 5.02 -2 4 C-1.34 2.68 -0.68 1.36 0 0 Z " fill="#FFFCFB" transform="translate(281,244)"/>
<path d="M0 0 C2.61577816 5.23155631 1.6207859 6.59738034 0 12 C-0.66 12 -1.32 12 -2 12 C-1.34 8.04 -0.68 4.08 0 0 Z " fill="#FDD9D8" transform="translate(161,248)"/>
<path d="M0 0 C-0.33 2.31 -0.66 4.62 -1 7 C-1.33 6.34 -1.66 5.68 -2 5 C-2.66 5 -3.32 5 -4 5 C-4 4.01 -4 3.02 -4 2 C-1 0 -1 0 0 0 Z " fill="#F45B5B" transform="translate(299,281)"/>
<path d="M0 0 C0.66 0.33 1.32 0.66 2 1 C2 3.97 2 6.94 2 10 C1.67 10 1.34 10 1 10 C0.63883954 8.5225254 0.28624952 7.04295325 -0.0625 5.5625 C-0.25972656 4.73878906 -0.45695312 3.91507812 -0.66015625 3.06640625 C-0.82837891 2.04353516 -0.82837891 2.04353516 -1 1 C-0.67 0.67 -0.34 0.34 0 0 Z " fill="#F65757" transform="translate(282,255)"/>
<path d="M0 0 C0.33 0.66 0.66 1.32 1 2 C0.125 4 0.125 4 -1 6 C-1.33 6.66 -1.66 7.32 -2 8 C-2.99 7.01 -3.98 6.02 -5 5 C-3.35 3.35 -1.7 1.7 0 0 Z " fill="#FEDDDE" transform="translate(281,242)"/>
<path d="" fill="#FF0000" transform="translate(0,0)"/>
</svg>
